<?xml version="1.0" encoding="utf-8"?>
<!-- Generator: Adobe Illustrator 16.0.0, SVG Export Plug-In . SVG Version: 6.00 Build 0)  -->
<!DOCTYPE svg PUBLIC "-//W3C//DTD SVG 1.1 Tiny//EN" "http://www.w3.org/Graphics/SVG/1.1/DTD/svg11-tiny.dtd">
<svg version="1.1" baseProfile="tiny" xmlns="http://www.w3.org/2000/svg" xmlns:xlink="http://www.w3.org/1999/xlink" x="0px"
	 y="0px" width="325px" height="260px" viewBox="0 0 325 260" xml:space="preserve">
<g id="Layer_1">
</g>
<g id="Layer_2">
	<g>
		<rect x="127" y="94.416" fill="#666666" width="75" height="5"/>
		<g>
			<rect x="115" y="40.416" fill="#999999" width="98" height="55"/>
			<ellipse fill="#999999" cx="163.998" cy="40.662" rx="49" ry="38.045"/>
		</g>
		<g>
			<g>
				<rect x="103" y="97.416" fill="#999999" width="120" height="85"/>
				<rect x="35" y="123.416" fill="#999999" width="255" height="8"/>
				<rect x="123" y="152.416" fill="#999999" width="8" height="95"/>
				<rect x="196" y="152.416" fill="#999999" width="8" height="95"/>
			</g>
			<rect x="195" y="248.416" fill="#999999" width="41" height="10"/>
			<rect x="91" y="248.416" fill="#999999" width="41" height="10"/>
		</g>
		<path fill="#999999" d="M302,119.416h21.054c-3.01-5.724-9.192-9.66-16.352-9.66c-10.11,0-18.307,7.835-18.307,17.5
			s8.196,17.5,18.307,17.5c7.439,0,13.829-4.249,16.693-10.34H302V119.416z"/>
		<path fill="#999999" d="M23,120.416H3.404c3.009-6,9.192-10.24,16.351-10.24c10.111,0,18.307,7.709,18.307,17.498
			s-8.196,17.47-18.307,17.47c-7.439,0-13.829-3.728-16.693-10.728H23V120.416z"/>
		<rect x="127" y="117.416" fill="#4D4D4D" width="75" height="40"/>
		<circle fill="#0071BC" cx="138.334" cy="127.595" r="7.5"/>
		<rect x="151" y="132.416" fill="#F7931E" width="31" height="20"/>
		<rect x="188" y="122.416" fill="#ED1E79" width="10" height="30"/>
		<rect x="228" y="122.416" fill="#4D4D4D" width="1" height="10"/>
		<rect x="233" y="122.416" fill="#4D4D4D" width="1" height="10"/>
		<rect x="238" y="122.416" fill="#4D4D4D" width="1" height="10"/>
		<rect x="243" y="122.416" fill="#4D4D4D" width="1" height="10"/>
		<rect x="248" y="122.416" fill="#4D4D4D" width="1" height="10"/>
		<rect x="253" y="122.416" fill="#4D4D4D" width="1" height="10"/>
		<rect x="258" y="122.416" fill="#4D4D4D" width="1" height="10"/>
		<rect x="263" y="122.416" fill="#4D4D4D" width="1" height="10"/>
		<rect x="263" y="122.416" fill="#4D4D4D" width="1" height="10"/>
		<rect x="268" y="122.416" fill="#4D4D4D" width="1" height="10"/>
		<rect x="273" y="122.416" fill="#4D4D4D" width="1" height="10"/>
		<rect x="278" y="122.416" fill="#4D4D4D" width="1" height="10"/>
		<rect x="283" y="122.416" fill="#4D4D4D" width="1" height="10"/>
		<rect x="288" y="122.416" fill="#4D4D4D" width="1" height="10"/>
		<rect x="223" y="122.416" fill="#4D4D4D" width="1" height="10"/>
		<rect x="42" y="122.416" fill="#4D4D4D" width="1" height="10"/>
		<rect x="47" y="122.416" fill="#4D4D4D" width="1" height="10"/>
		<rect x="52" y="122.416" fill="#4D4D4D" width="1" height="10"/>
		<rect x="57" y="122.416" fill="#4D4D4D" width="1" height="10"/>
		<rect x="62" y="122.416" fill="#4D4D4D" width="1" height="10"/>
		<rect x="67" y="122.416" fill="#4D4D4D" width="1" height="10"/>
		<rect x="72" y="122.416" fill="#4D4D4D" width="1" height="10"/>
		<rect x="77" y="122.416" fill="#4D4D4D" width="1" height="10"/>
		<rect x="82" y="122.416" fill="#4D4D4D" width="1" height="10"/>
		<rect x="87" y="122.416" fill="#4D4D4D" width="1" height="10"/>
		<rect x="92" y="122.416" fill="#4D4D4D" width="1" height="10"/>
		<rect x="97" y="122.416" fill="#4D4D4D" width="1" height="10"/>
		<rect x="102" y="122.416" fill="#4D4D4D" width="1" height="10"/>
		<rect x="37" y="122.416" fill="#4D4D4D" width="1" height="10"/>
		<g>
			<rect x="195" y="242.416" fill="#4D4D4D" width="10" height="1"/>
			<rect x="195" y="237.416" fill="#4D4D4D" width="10" height="1"/>
			<rect x="195" y="232.416" fill="#4D4D4D" width="10" height="1"/>
			<rect x="195" y="227.416" fill="#4D4D4D" width="10" height="1"/>
			<rect x="195" y="222.416" fill="#4D4D4D" width="10" height="1"/>
			<rect x="195" y="217.416" fill="#4D4D4D" width="10" height="1"/>
			<rect x="195" y="212.416" fill="#4D4D4D" width="10" height="1"/>
			<rect x="195" y="207.416" fill="#4D4D4D" width="10" height="1"/>
			<rect x="195" y="202.416" fill="#4D4D4D" width="10" height="1"/>
			<rect x="195" y="197.416" fill="#4D4D4D" width="10" height="1"/>
			<rect x="195" y="192.416" fill="#4D4D4D" width="10" height="1"/>
			<rect x="195" y="187.416" fill="#4D4D4D" width="10" height="1"/>
			<rect x="195" y="182.416" fill="#4D4D4D" width="10" height="1"/>
			<rect x="195" y="247.416" fill="#4D4D4D" width="10" height="1"/>
		</g>
		<g>
			<rect x="122" y="242.416" fill="#4D4D4D" width="10" height="1"/>
			<rect x="122" y="237.416" fill="#4D4D4D" width="10" height="1"/>
			<rect x="122" y="232.416" fill="#4D4D4D" width="10" height="1"/>
			<rect x="122" y="227.416" fill="#4D4D4D" width="10" height="1"/>
			<rect x="122" y="222.416" fill="#4D4D4D" width="10" height="1"/>
			<rect x="122" y="217.416" fill="#4D4D4D" width="10" height="1"/>
			<rect x="122" y="212.416" fill="#4D4D4D" width="10" height="1"/>
			<rect x="122" y="207.416" fill="#4D4D4D" width="10" height="1"/>
			<rect x="122" y="202.416" fill="#4D4D4D" width="10" height="1"/>
			<rect x="122" y="197.416" fill="#4D4D4D" width="10" height="1"/>
			<rect x="122" y="192.416" fill="#4D4D4D" width="10" height="1"/>
			<rect x="122" y="187.416" fill="#4D4D4D" width="10" height="1"/>
			<rect x="122" y="182.416" fill="#4D4D4D" width="10" height="1"/>
			<rect x="122" y="247.416" fill="#4D4D4D" width="10" height="1"/>
		</g>
		<circle fill="#ED1C24" cx="138.334" cy="146.595" r="7.5"/>
		<g>
			<circle fill="#4D4D4D" cx="165" cy="53.416" r="30"/>
		</g>
		<circle fill="#E6E6E6" cx="164.5" cy="53.916" r="25"/>
		<circle fill="#4D4D4D" cx="165.25" cy="53.162" r="7.5"/>
	</g>
</g>
</svg>
